<?xml version="1.0" encoding="UTF-8"?>
<svg id="Layer_3" data-name="Layer 3" xmlns="http://www.w3.org/2000/svg" viewBox="0 0 500 500">
  <path d="M456.58,10H43.42c-5.03,0-9.11,4.08-9.11,9.11v48.61c0,5.03,4.08,9.11,9.11,9.11h15.19v404.05c0,5.03,4.08,9.11,9.11,9.11h364.56c5.03,0,9.11-4.08,9.11-9.11V76.84h15.19c5.03,0,9.11-4.08,9.11-9.11V19.11c0-5.03-4.08-9.11-9.11-9.11ZM287.07,471.77h-74.13v-41.93c0-20.44,16.63-37.06,37.06-37.06s37.07,16.63,37.07,37.06v41.93ZM423.16,471.77h-117.86v-41.93c0-30.49-24.8-55.29-55.3-55.29s-55.29,24.8-55.29,55.29v41.93h-117.88V76.84h346.33v394.94ZM447.47,58.61H52.53v-30.38h394.94v30.38Z" stroke-width="0"/>
  <path d="M116.33,198.35h97.22c5.03,0,9.11-4.08,9.11-9.11s-4.08-9.11-9.11-9.11h-3.04v-63.8c0-5.03-4.08-9.11-9.11-9.11h-72.91c-5.03,0-9.11,4.08-9.11,9.11v63.8h-3.04c-5.03,0-9.11,4.08-9.11,9.11s4.08,9.11,9.11,9.11ZM137.59,125.44h54.68v54.68h-54.68v-54.68Z" stroke-width="0"/>
  <path d="M286.46,198.35h97.22c5.03,0,9.11-4.08,9.11-9.11s-4.08-9.11-9.11-9.11h-3.04v-63.8c0-5.03-4.08-9.11-9.11-9.11h-72.91c-5.03,0-9.11,4.08-9.11,9.11v63.8h-3.04c-5.03,0-9.11,4.08-9.11,9.11s4.08,9.11,9.11,9.11ZM307.72,125.44h54.68v54.68h-54.68v-54.68Z" stroke-width="0"/>
  <path d="M116.33,344.18h97.22c5.03,0,9.11-4.08,9.11-9.11s-4.08-9.11-9.11-9.11h-3.04v-63.8c0-5.03-4.08-9.11-9.11-9.11h-72.91c-5.03,0-9.11,4.08-9.11,9.11v63.8h-3.04c-5.03,0-9.11,4.08-9.11,9.11s4.08,9.11,9.11,9.11ZM137.59,271.27h54.68v54.68h-54.68v-54.68Z" stroke-width="0"/>
  <path d="M286.46,344.18h97.22c5.03,0,9.11-4.08,9.11-9.11s-4.08-9.11-9.11-9.11h-3.04v-63.8c0-5.03-4.08-9.11-9.11-9.11h-72.91c-5.03,0-9.11,4.08-9.11,9.11v63.8h-3.04c-5.03,0-9.11,4.08-9.11,9.11s4.08,9.11,9.11,9.11ZM307.72,271.27h54.68v54.68h-54.68v-54.68Z" stroke-width="0"/>
</svg>