<?xml version="1.0" encoding="UTF-8"?>
<svg id="Layer_3" data-name="Layer 3" xmlns="http://www.w3.org/2000/svg" viewBox="0 0 500 500">
  <path d="M480.88,213.74h-18.04v-67.26l15.95,3.75c.71.17,1.4.24,2.09.24,4.13,0,7.88-2.82,8.88-7.03,1.14-4.89-1.9-9.8-6.79-10.97L52.29,31.13c-1.61-1.44-3.68-2.38-6.01-2.38-.78,0-1.48.26-2.2.45l-22.87-5.38c-4.83-1.14-9.79,1.87-10.97,6.79-1.15,4.89,1.89,9.8,6.79,10.97l20.14,4.74v113.1h-18.05c-5.03,0-9.11,4.08-9.11,9.11v298.78c0,5.03,4.08,9.11,9.11,9.11h461.76c5.03,0,9.11-4.08,9.11-9.11v-244.46c0-5.03-4.08-9.11-9.11-9.11ZM55.4,50.6l389.22,91.58v71.55h-171.93v-45.21c0-5.03-4.08-9.11-9.11-9.11H55.4V50.6ZM28.23,177.64h226.23v280.56H28.23V177.64ZM327.02,458.19v-144.75h90.43v144.75h-90.43ZM471.77,458.19h-36.1v-153.87c0-5.03-4.08-9.11-9.11-9.11h-108.65c-5.03,0-9.11,4.08-9.11,9.11v153.87h-36.1v-226.23h199.08v226.23Z" stroke-width="0"/>
  <path d="M209.26,268.04H73.45c-5.03,0-9.11,4.08-9.11,9.11v135.83c0,5.03,4.08,9.11,9.11,9.11h135.82c5.03,0,9.11-4.08,9.11-9.11v-135.83c0-5.03-4.08-9.11-9.11-9.11ZM200.15,335.96h-49.68s0-49.7,0-49.7h49.68v49.7ZM132.25,286.27v49.69s-49.69,0-49.69,0v-49.68h49.69ZM82.56,354.17h49.68s0,49.7,0,49.7h-49.68v-49.7ZM150.46,403.87v-49.69s49.69,0,49.69,0v49.68h-49.69Z" stroke-width="0"/>
</svg>