<?xml version="1.0" encoding="UTF-8"?>
<svg id="Layer_3" data-name="Layer 3" xmlns="http://www.w3.org/2000/svg" viewBox="0 0 500 500">
  <path d="M486.02,251.29l-171.46-91.43-56.59-90.56c-3.21-5.08-11.52-5.08-14.73,0l-56.59,90.56L15.2,251.29c-3.5,1.87-5.29,5.9-4.34,9.76.97,3.86,4.45,6.57,8.43,6.57h2.89v199.51c0,4.79,3.89,8.67,8.67,8.67h439.51c4.79,0,8.67-3.89,8.67-8.67v-199.51h2.89c3.98,0,7.45-2.71,8.43-6.57.95-3.86-.84-7.88-4.34-9.76ZM250.61,90.26l42.17,67.49h-84.35l42.17-67.49ZM194.96,175.09h111.3l140.98,75.18H53.98l140.98-75.18ZM201.45,458.46v-144.58h40.48v144.58h-40.48ZM259.28,458.46v-144.58h40.48v144.58h-40.48ZM461.69,458.46h-144.58v-153.25c0-4.79-3.89-8.67-8.67-8.67h-115.66c-4.79,0-8.67,3.89-8.67,8.67v153.25H39.52v-190.84h422.16v190.84Z" stroke-width="0"/>
  <path d="M354.7,429.55h69.4c4.79,0,8.67-3.89,8.67-8.67v-104.09c0-4.79-3.89-8.67-8.67-8.67h-69.4c-4.79,0-8.67,3.89-8.67,8.67v104.09c0,4.79,3.89,8.67,8.67,8.67ZM363.37,412.2v-34.7h52.05v34.7h-52.05ZM415.42,325.45v34.7h-52.05v-34.7h52.05Z" stroke-width="0"/>
  <path d="M77.11,429.55h69.4c4.79,0,8.67-3.89,8.67-8.67v-104.09c0-4.79-3.89-8.67-8.67-8.67h-69.4c-4.79,0-8.67,3.89-8.67,8.67v104.09c0,4.79,3.89,8.67,8.67,8.67ZM85.79,412.2v-34.7h52.05v34.7h-52.05ZM137.84,325.45v34.7h-52.05v-34.7h52.05Z" stroke-width="0"/>
</svg>