<?xml version="1.0" encoding="UTF-8"?>
<svg id="Layer_3" data-name="Layer 3" xmlns="http://www.w3.org/2000/svg" viewBox="0 0 500 500">
  <path d="M481.49,241.09h-46.16c-5.03,0-9.11,4.08-9.11,9.11v13.98h-27.96v-13.98c0-5.03-4.08-9.11-9.11-9.11h-46.16c-5.03,0-9.11,4.08-9.11,9.11v46.17c0,2.42.95,4.73,2.66,6.44l19.08,19.08h-38.16v-79.46l31.97-31.97c1.71-1.71,2.66-4.02,2.66-6.44v-46.19c0-5.03-4.08-9.11-9.11-9.11h-46.16c-5.03,0-9.11,4.08-9.11,9.11v13.98h-27.96v-44.19l42.65-32.98c2.47-1.92,3.8-4.98,3.49-8.11-.31-3.12-2.18-5.86-4.98-7.26l-46.19-23.09c-2.8-1.4-6.17-1.29-8.88.4-2.68,1.66-4.32,4.59-4.32,7.75v107.48h-27.94v-13.98c0-5.03-4.08-9.11-9.11-9.11h-46.19c-5.03,0-9.11,4.08-9.11,9.11v46.17c0,2.42.95,4.73,2.66,6.44l31.97,31.98v79.46h-38.15l19.06-19.08c1.71-1.71,2.66-4.02,2.66-6.44v-46.17c0-5.03-4.08-9.11-9.11-9.11h-46.16c-5.03,0-9.11,4.08-9.11,9.11v13.98h-27.94v-13.98c0-5.03-4.08-9.11-9.11-9.11H19.72c-5.03,0-9.11,4.08-9.11,9.11v46.17c0,2.42.95,4.73,2.66,6.44l31.97,31.98v157.85c0,5.03,4.08,9.11,9.11,9.11h392.52c5.03,0,9.11-4.08,9.11-9.11v-157.85l31.97-31.98c1.71-1.71,2.66-4.02,2.66-6.44v-46.17c0-5.03-4.08-9.11-9.11-9.11ZM259.72,79.09l20.03,10-20.03,15.49v-25.49ZM167.37,166.96h27.96v13.98c0,5.03,4.08,9.11,9.11,9.11h45.81c.12,0,.23.07.35.07s.23-.07.35-.07h45.83c5.03,0,9.11-4.08,9.11-9.11v-13.98h27.94v33.3l-29.3,29.29h-107.87l-29.3-29.3v-33.29ZM202,247.77h97.22v74.13h-97.22v-74.13ZM28.83,259.32h27.96v13.98c0,5.03,4.08,9.11,9.11,9.11h46.16c5.03,0,9.11-4.08,9.11-9.11v-13.98h27.94v33.29l-29.28,29.3h-61.71l-29.3-29.3v-33.29ZM63.46,340.13h51.05v143.4h-51.05v-143.4ZM132.74,340.13h235.75v143.4h-62.59v-60.15c0-30.5-24.8-55.3-55.3-55.3s-55.3,24.8-55.3,55.3v60.15h-62.56v-143.4ZM213.53,483.53v-60.15c0-20.45,16.64-37.07,37.07-37.07s37.07,16.63,37.07,37.07v60.15h-74.15ZM437.75,483.53h-51.03v-143.4h51.03v143.4ZM472.38,292.6l-29.3,29.3h-61.69l-29.3-29.3v-33.29h27.94v13.98c0,5.03,4.08,9.11,9.11,9.11h46.19c5.03,0,9.11-4.08,9.11-9.11v-13.98h27.94v33.29Z" stroke-width="0"/>
</svg>