<?xml version="1.0" encoding="UTF-8"?>
<svg id="Layer_3" data-name="Layer 3" xmlns="http://www.w3.org/2000/svg" viewBox="0 0 500 500">
  <path d="M481.37,437h-2.43v-187.77c.73.24,1.46.73,2.43.73,1.46,0,2.91-.24,4.13-.97,4.62-2.43,6.32-8.02,3.89-12.39l-48.58-92.31c-1.7-2.91-4.86-4.86-8.02-4.86h-23.08v-27.94h13.85c5.1,0,9.23-4.13,9.23-9.23s-4.13-8.99-9.23-8.99h-92.06c-5.1,0-9.23,4.13-9.23,8.99,0,5.1,4.13,9.23,9.23,9.23h13.85v27.94h-83.32c-.73,0-1.46.24-2.19.48v-6.56h13.85c3.16,0,5.83-1.46,7.53-4.13,1.7-2.67,1.94-5.83.73-8.74l-20.16-46.15c-1.46-3.16-4.62-5.34-8.26-5.34h-121.21c-3.64,0-6.8,2.19-8.26,5.34l-20.16,46.15c-1.22,2.91-.97,6.07.73,8.74,1.7,2.67,4.37,4.13,7.53,4.13h14.09v6.56c-.97-.24-1.7-.48-2.43-.48h-55.39c-3.16,0-6.32,1.94-8.02,4.86L11.82,236.59c-2.43,4.37-.73,9.96,3.89,12.39,1.21.73,2.67.97,4.13.97.97,0,1.7-.49,2.43-.73v187.77h-2.43c-5.1,0-9.23,4.13-9.23,9.23v48.58c0,4.86,4.13,8.99,9.23,8.99h461.54c5.1,0,9.23-4.13,9.23-8.99v-48.58c0-5.1-4.13-9.23-9.23-9.23ZM202.02,437v-117.81h39.35v117.81h-39.35ZM259.84,437v-117.81h39.35v117.81h-39.35ZM317.41,437v-127.05c0-4.86-4.13-8.99-8.99-8.99h-115.63c-4.86,0-8.99,4.13-8.99,8.99v127.05h-51.01v-187.04h235.63v187.04h-51.01ZM86.64,437v-187.04h27.94v187.04h-27.94ZM386.64,437v-187.04h27.94v187.04h-27.94ZM432.79,437v-187.04h27.94v187.04h-27.94ZM363.56,111.49h27.93v27.94h-27.93v-27.94ZM125.99,115.13l12.39-27.94h109.07l12.39,27.94H125.99ZM241.37,133.35v52.23h-97.17v-52.23h97.17ZM74.01,157.64h49.8c.73,0,1.46-.24,2.43-.49v37.41c0,5.1,3.89,9.23,8.99,9.23h115.38c5.1,0,9.23-4.13,9.23-9.23v-37.41c.73.24,1.46.49,2.19.49h165.18l39.11,74.09H34.9l39.11-74.09ZM40.48,249.95h27.94v187.04h-27.94v-187.04ZM472.14,485.58H29.07v-30.36h443.08v30.36Z" stroke-width="0"/>
</svg>