<?xml version="1.0" encoding="UTF-8"?>
<svg id="Layer_3" data-name="Layer 3" xmlns="http://www.w3.org/2000/svg" viewBox="0 0 500 500">
  <path d="M482.07,285.57L257.03,13.15c-3.47-4.2-10.59-4.2-14.06,0L103.72,181.71v-44.32c0-5.03-4.08-9.12-9.12-9.12s-9.12,4.08-9.12,9.12v66.39l-67.56,81.78c-3.21,3.88-2.66,9.63,1.22,12.83,2.48,2.04,5.68,2.41,8.54,1.5v180.98c0,5.03,4.08,9.12,9.12,9.12h426.38c5.03,0,9.12-4.08,9.12-9.12v-180.99c.89.28,1.79.6,2.73.6,2.05,0,4.11-.69,5.8-2.09,3.88-3.21,4.43-8.95,1.22-12.83ZM250,33.27l207.86,251.62s-.04.02-.06.04c-1.65-1.65-3.93-2.67-6.45-2.67H48.64c-2.52,0-4.8,1.02-6.45,2.67-.02-.01-.04-.03-.06-.04L250,33.27ZM199.89,471.77v-123.9h40.99v123.9h-40.99ZM259.12,471.77v-123.9h40.99v123.9h-40.99ZM318.34,471.77v-133.02c0-5.03-4.08-9.12-9.12-9.12h-118.45c-5.03,0-9.12,4.08-9.12,9.12v133.02H45.92v-171.82c.87.28,1.75.55,2.72.55h402.71c.96,0,1.85-.27,2.72-.55v171.82h-135.73Z" stroke-width="0"/>
  <path d="M167.09,229.43h165.81c3.48,0,6.66-1.98,8.19-5.12,1.53-3.12,1.14-6.85-1-9.59l-82.91-106.6c-3.44-4.46-10.95-4.46-14.39,0l-82.91,106.6c-2.14,2.74-2.53,6.47-1,9.59,1.53,3.13,4.71,5.12,8.19,5.12ZM250,128.56l64.27,82.63h-128.54l64.27-82.63Z" stroke-width="0"/>
  <path d="M403.98,329.63h-47.38c-5.03,0-9.12,4.08-9.12,9.12v94.75c0,5.03,4.08,9.12,9.12,9.12h47.38c5.03,0,9.12-4.08,9.12-9.12v-94.75c0-5.03-4.08-9.12-9.12-9.12ZM394.86,424.39h-29.14v-76.52h29.14v76.52Z" stroke-width="0"/>
  <path d="M143.4,329.63h-47.38c-5.03,0-9.12,4.08-9.12,9.12v94.75c0,5.03,4.08,9.12,9.12,9.12h47.38c5.03,0,9.12-4.08,9.12-9.12v-94.75c0-5.03-4.08-9.12-9.12-9.12ZM134.28,424.39h-29.14v-76.52h29.14v76.52Z" stroke-width="0"/>
</svg>