<?xml version="1.0" encoding="UTF-8"?>
<svg id="Layer_3" data-name="Layer 3" xmlns="http://www.w3.org/2000/svg" viewBox="0 0 500 500">
  <path d="M480.89,131.52h-112.41v-63.8c0-5.03-4.08-9.11-9.11-9.11h-218.73c-5.03,0-9.11,4.08-9.11,9.11v63.8H19.11c-5.03,0-9.11,4.08-9.11,9.11v291.65c0,5.03,4.08,9.11,9.11,9.11h461.77c5.03,0,9.11-4.08,9.11-9.11V140.63c0-5.03-4.08-9.11-9.11-9.11ZM471.77,149.75v224.81h-103.29v-224.81h103.29ZM149.75,76.84h200.51v297.72h-30.38v-112.41c0-5.03-4.08-9.11-9.11-9.11h-121.52c-5.03,0-9.11,4.08-9.11,9.11v112.41h-30.38V76.84ZM198.35,374.56v-103.29h42.52v103.29h-42.52ZM259.1,271.27h42.54v103.29h-42.54v-103.29ZM28.23,149.75h103.29v224.81H28.23v-224.81ZM471.77,423.16H28.23v-30.38h443.54v30.38Z" stroke-width="0"/>
  <path d="M189.24,174.05h24.3c5.03,0,9.11-4.08,9.11-9.11s-4.08-9.11-9.11-9.11h-24.3c-5.03,0-9.11,4.08-9.11,9.11s4.08,9.11,9.11,9.11Z" stroke-width="0"/>
  <path d="M286.46,174.05h24.3c5.03,0,9.11-4.08,9.11-9.11s-4.08-9.11-9.11-9.11h-24.3c-5.03,0-9.11,4.08-9.11,9.11s4.08,9.11,9.11,9.11Z" stroke-width="0"/>
  <path d="M189.24,125.44h24.3c5.03,0,9.11-4.08,9.11-9.11s-4.08-9.11-9.11-9.11h-24.3c-5.03,0-9.11,4.08-9.11,9.11s4.08,9.11,9.11,9.11Z" stroke-width="0"/>
  <path d="M286.46,125.44h24.3c5.03,0,9.11-4.08,9.11-9.11s-4.08-9.11-9.11-9.11h-24.3c-5.03,0-9.11,4.08-9.11,9.11s4.08,9.11,9.11,9.11Z" stroke-width="0"/>
  <path d="M189.24,222.66h24.3c5.03,0,9.11-4.08,9.11-9.11s-4.08-9.11-9.11-9.11h-24.3c-5.03,0-9.11,4.08-9.11,9.11s4.08,9.11,9.11,9.11Z" stroke-width="0"/>
  <path d="M286.46,222.66h24.3c5.03,0,9.11-4.08,9.11-9.11s-4.08-9.11-9.11-9.11h-24.3c-5.03,0-9.11,4.08-9.11,9.11s4.08,9.11,9.11,9.11Z" stroke-width="0"/>
  <path d="M407.97,271.27h24.3c5.03,0,9.11-4.08,9.11-9.11s-4.08-9.11-9.11-9.11h-24.3c-5.03,0-9.11,4.08-9.11,9.11s4.08,9.11,9.11,9.11Z" stroke-width="0"/>
  <path d="M407.97,222.66h24.3c5.03,0,9.11-4.08,9.11-9.11s-4.08-9.11-9.11-9.11h-24.3c-5.03,0-9.11,4.08-9.11,9.11s4.08,9.11,9.11,9.11Z" stroke-width="0"/>
  <path d="M407.97,319.87h24.3c5.03,0,9.11-4.08,9.11-9.11s-4.08-9.11-9.11-9.11h-24.3c-5.03,0-9.11,4.08-9.11,9.11s4.08,9.11,9.11,9.11Z" stroke-width="0"/>
  <path d="M92.03,253.04h-24.3c-5.03,0-9.11,4.08-9.11,9.11s4.08,9.11,9.11,9.11h24.3c5.03,0,9.11-4.08,9.11-9.11s-4.08-9.11-9.11-9.11Z" stroke-width="0"/>
  <path d="M92.03,204.43h-24.3c-5.03,0-9.11,4.08-9.11,9.11s4.08,9.11,9.11,9.11h24.3c5.03,0,9.11-4.08,9.11-9.11s-4.08-9.11-9.11-9.11Z" stroke-width="0"/>
  <path d="M92.03,301.65h-24.3c-5.03,0-9.11,4.08-9.11,9.11s4.08,9.11,9.11,9.11h24.3c5.03,0,9.11-4.08,9.11-9.11s-4.08-9.11-9.11-9.11Z" stroke-width="0"/>
</svg>