<?xml version="1.0" encoding="UTF-8"?>
<svg id="Layer_3" data-name="Layer 3" xmlns="http://www.w3.org/2000/svg" viewBox="0 0 500 500">
  <path d="M489.64,211.04l-48.61-170.13c-1.12-3.92-4.69-6.61-8.76-6.61h-138.32l-39.35-23.06c-2.85-1.66-6.36-1.66-9.21,0l-39.35,23.06H67.72c-4.07,0-7.64,2.69-8.76,6.61L10.36,211.04c-.8,2.75-.24,5.71,1.48,7.99,1.72,2.29,4.41,3.63,7.27,3.63h15.19v258.23c0,5.03,4.08,9.11,9.11,9.11h413.17c5.03,0,9.11-4.08,9.11-9.11V222.66h15.19c2.86,0,5.55-1.34,7.27-3.63,1.72-2.28,2.28-5.23,1.48-7.99ZM250,29.68l88.1,51.62v123.13h-176.2v-123.13l88.1-51.62ZM74.59,52.53h100.34l-26.75,15.68c-2.79,1.64-4.51,4.63-4.51,7.87v128.35H31.19L74.59,52.53ZM222.66,471.77v-51.65c0-15.07,12.27-27.34,27.34-27.34s27.34,12.27,27.34,27.34v51.65h-54.68ZM295.57,471.77v-51.65c0-25.12-20.45-45.57-45.57-45.57s-45.57,20.45-45.57,45.57v51.65h-18.23v-174.73l63.8-36.54,63.8,36.54v174.73h-18.23ZM447.47,471.77h-115.44v-180.01c0-3.26-1.74-6.29-4.58-7.9l-72.91-41.76c-2.82-1.61-6.24-1.61-9.07,0l-72.91,41.76c-2.84,1.61-4.58,4.64-4.58,7.9v180.01H52.53v-249.11h394.94v249.11ZM456.58,204.43h-100.25V76.08c0-3.24-1.72-6.23-4.51-7.87l-26.75-15.68h100.34l43.4,151.9h-12.22Z" stroke-width="0"/>
  <path d="M359.37,417.09h48.61c5.03,0,9.11-4.08,9.11-9.11v-97.22c0-5.03-4.08-9.11-9.11-9.11h-48.61c-5.03,0-9.11,4.08-9.11,9.11v97.22c0,5.03,4.08,9.11,9.11,9.11ZM368.48,319.87h30.38v78.99h-30.38v-78.99Z" stroke-width="0"/>
  <path d="M140.63,301.65h-48.61c-5.03,0-9.11,4.08-9.11,9.11v97.22c0,5.03,4.08,9.11,9.11,9.11h48.61c5.03,0,9.11-4.08,9.11-9.11v-97.22c0-5.03-4.08-9.11-9.11-9.11ZM131.52,398.86h-30.38v-78.99h30.38v78.99Z" stroke-width="0"/>
  <path d="M213.54,174.05h72.91c5.03,0,9.11-4.08,9.11-9.11v-36.46c0-25.12-20.45-45.57-45.57-45.57s-45.57,20.45-45.57,45.57v36.46c0,5.03,4.08,9.11,9.11,9.11ZM222.66,128.48c0-15.07,12.27-27.34,27.34-27.34s27.34,12.27,27.34,27.34v27.34h-54.68v-27.34Z" stroke-width="0"/>
</svg>