<?xml version="1.0" encoding="UTF-8"?>
<svg id="Layer_3" data-name="Layer 3" xmlns="http://www.w3.org/2000/svg" viewBox="0 0 500 500">
  <path d="M480.89,298.61h-13.98v-83.24c0-5.03-4.08-9.11-9.11-9.11h-13.97v-101.38l11.08,3.7c.96.33,1.93.47,2.88.47,3.82,0,7.37-2.42,8.65-6.24,1.59-4.77-1-9.92-5.77-11.51L252.88,22.01c-.28-.09-.55-.04-.83-.11-.59-.14-1.16-.3-1.78-.31-.09,0-.17-.05-.27-.05-.11,0-.2.06-.31.06-.6.02-1.14.16-1.71.3-.29.07-.58.01-.87.12L39.32,91.29c-4.77,1.59-7.36,6.74-5.77,11.51,1.28,3.82,4.83,6.24,8.65,6.24.95,0,1.92-.14,2.88-.47l11.08-3.7v101.38h-13.97c-5.03,0-9.11,4.08-9.11,9.11v83.24h-13.98c-5.03,0-9.11,4.08-9.11,9.11v161.63c0,5.03,4.08,9.11,9.11,9.11h461.77c5.03,0,9.11-4.08,9.11-9.11v-161.63c0-5.03-4.08-9.11-9.11-9.11ZM448.68,298.61h-51.03v-74.12h51.03v74.12ZM328.38,298.61v-74.12h51.04v74.12h-51.04ZM259.11,298.61v-74.12h51.04v74.12h-51.04ZM120.58,298.61v-74.12h51.04v74.12h-51.04ZM194.71,206.26h-74.13v-53.05l74.13-18.51v71.56ZM189.85,224.49h51.04v74.12h-51.04v-74.12ZM379.42,206.26h-74.13v-71.56l74.13,18.51v53.05ZM425.6,206.26h-27.95v-60.17c0-4.18-2.85-7.83-6.91-8.85l-92.36-23.07c-2.72-.64-5.6-.05-7.82,1.66-2.21,1.73-3.5,4.39-3.5,7.19v83.24h-27.95V43.29l166.48,55.51v107.46ZM74.4,98.8l166.48-55.51v162.97h-27.95v-83.24c0-2.8-1.29-5.46-3.5-7.19-2.23-1.73-5.14-2.33-7.82-1.66l-92.36,23.07c-4.06,1.02-6.91,4.68-6.91,8.85v60.17h-27.95v-107.46ZM51.32,224.49h51.03v74.12h-51.03v-74.12ZM28.23,316.84h212.66v143.4h-51.04v-83.26c0-5.03-4.08-9.11-9.11-9.11h-92.35c-5.03,0-9.11,4.08-9.11,9.11v83.26H28.23v-143.4ZM97.5,386.09h27.95v74.15h-27.95v-74.15ZM143.67,460.24v-74.15h27.95v74.15h-27.95ZM328.38,460.24v-74.15h27.95v74.15h-27.95ZM374.56,460.24v-74.15h27.95v74.15h-27.95ZM471.77,460.24h-51.04v-83.26c0-5.03-4.08-9.11-9.11-9.11h-92.35c-5.03,0-9.11,4.08-9.11,9.11v83.26h-51.04v-143.4h212.66v143.4Z" stroke-width="0"/>
</svg>