<?xml version="1.0" encoding="UTF-8"?>
<svg id="Layer_3" data-name="Layer 3" xmlns="http://www.w3.org/2000/svg" viewBox="0 0 500 500">
  <path d="M488.18,189.84l-72.91-97.22c-1.02-1.36-2.42-2.42-4.01-3.04L253.28,28.83c-2.14-.81-4.41-.81-6.55,0l-157.98,60.76c-1.59.62-2.99,1.67-4.01,3.04L11.82,189.84c-3.01,4.03-2.21,9.74,1.83,12.76,4.01,3.01,9.73,2.21,12.75-1.82l20.06-26.74v288.61c0,5.03,4.08,9.11,9.11,9.11h388.87c5.03,0,9.11-4.08,9.11-9.11V174.05l20.06,26.74c1.78,2.39,4.53,3.64,7.29,3.64,1.9,0,3.82-.59,5.46-1.83,4.03-3.01,4.84-8.72,1.83-12.76ZM350.26,442.37l-86.54-76.92,86.54-76.92v153.85ZM335.4,453.55h-170.8l85.4-75.91,85.4,75.91ZM250,353.25l-85.4-75.91h170.8l-85.4,75.91ZM236.28,365.45l-86.54,76.92v-153.85l86.54,76.92ZM435.32,453.55h-66.84v-185.32c0-2.21-.89-4.16-2.19-5.73-.08-.09-.03-.23-.11-.32-.04-.05-.11-.03-.15-.07-1.48-1.61-3.52-2.6-5.82-2.82-.16-.01-.28-.08-.45-.09-.13,0-.25-.08-.39-.08h-218.74c-.13,0-.23.07-.35.07-.2,0-.34.09-.54.11-2.27.23-4.3,1.21-5.76,2.81-.04.05-.11.03-.15.08-.08.09-.03.22-.11.32-1.31,1.58-2.19,3.53-2.19,5.73v185.32h-66.84V149.75l33.06-44.08,152.26-58.57,152.26,58.57,33.06,44.08v303.8Z" stroke-width="0"/>
  <path d="M250,113.29c-30.5,0-55.3,24.8-55.3,55.29v51.04c0,5.03,4.08,9.11,9.11,9.11h92.38c5.03,0,9.11-4.08,9.11-9.11v-51.04c0-30.49-24.8-55.29-55.3-55.29ZM287.07,210.51h-74.15v-41.93c0-20.44,16.64-37.06,37.07-37.06s37.07,16.63,37.07,37.06v41.93Z" stroke-width="0"/>
</svg>