<?xml version="1.0" encoding="UTF-8"?>
<svg id="Layer_3" data-name="Layer 3" xmlns="http://www.w3.org/2000/svg" viewBox="0 0 500 500">
  <path d="M489.02,296.64c-.07-.32.03-.66-.08-.97l-22.58-69.53V65.16c0-1.38-.36-2.66-.91-3.83-.04-.08-.01-.17-.05-.25l-23.02-46.04c-1.54-3.09-4.7-5.03-8.15-5.03H65.78c-3.45,0-6.61,1.95-8.15,5.03l-23.02,46.04c-.04.08-.02.17-.05.25-.55,1.17-.91,2.45-.91,3.83v160.98l-22.58,69.53c-.1.32-.01.65-.08.97-.13.62-.37,1.19-.37,1.85v182.4c0,5.03,4.08,9.11,9.11,9.11h460.56c5.03,0,9.11-4.08,9.11-9.11v-182.4c0-.66-.24-1.23-.37-1.85ZM379.05,218.46h-73.88v-61.19c0-20.36,16.57-36.93,36.94-36.93s36.94,16.57,36.94,36.93v61.19ZM342.11,102.11c-30.42,0-55.17,24.75-55.17,55.16v61.19h-73.88v-61.19c0-30.4-24.75-55.16-55.17-55.16s-55.17,24.75-55.17,55.16v61.19h-50.85V74.27h396.27v144.19h-50.85v-61.19c0-30.4-24.75-55.16-55.17-55.16ZM194.83,218.46h-73.88v-61.19c0-20.36,16.57-36.93,36.94-36.93s36.94,16.57,36.94,36.93v61.19ZM71.41,28.23h357.18l13.91,27.82H57.5l13.91-27.82ZM49.37,236.69h401.25l17.11,52.69H32.26l17.11-52.69ZM74.89,471.77v-59.98c0-20.36,16.57-36.93,36.94-36.93s36.94,16.57,36.94,36.93v59.98h-73.88ZM213.06,471.77v-59.98c0-20.36,16.57-36.93,36.94-36.93s36.94,16.57,36.94,36.93v59.98h-73.88ZM351.23,471.77v-59.98c0-20.36,16.57-36.93,36.94-36.93s36.94,16.57,36.94,36.93v59.98h-73.88ZM471.17,471.77h-27.83v-59.98c0-30.4-24.75-55.16-55.17-55.16s-55.17,24.75-55.17,55.16v59.98h-27.83v-59.98c0-30.4-24.75-55.16-55.17-55.16s-55.17,24.75-55.17,55.16v59.98h-27.83v-59.98c0-30.4-24.75-55.16-55.17-55.16s-55.17,24.75-55.17,55.16v59.98h-27.83v-164.17h442.33v164.17Z" stroke-width="0"/>
  <path d="M100.32,253.92h-23.03c-5.03,0-9.11,4.08-9.11,9.11s4.08,9.11,9.11,9.11h23.03c5.03,0,9.11-4.08,9.11-9.11s-4.08-9.11-9.11-9.11Z" stroke-width="0"/>
  <path d="M180.92,253.92h-23.03c-5.03,0-9.11,4.08-9.11,9.11s4.08,9.11,9.11,9.11h23.03c5.03,0,9.11-4.08,9.11-9.11s-4.08-9.11-9.11-9.11Z" stroke-width="0"/>
  <path d="M261.51,253.92h-23.02c-5.03,0-9.11,4.08-9.11,9.11s4.08,9.11,9.11,9.11h23.02c5.03,0,9.11-4.08,9.11-9.11s-4.08-9.11-9.11-9.11Z" stroke-width="0"/>
  <path d="M342.11,253.92h-23.03c-5.03,0-9.11,4.08-9.11,9.11s4.08,9.11,9.11,9.11h23.03c5.03,0,9.11-4.08,9.11-9.11s-4.08-9.11-9.11-9.11Z" stroke-width="0"/>
  <path d="M422.71,253.92h-23.03c-5.03,0-9.11,4.08-9.11,9.11s4.08,9.11,9.11,9.11h23.03c5.03,0,9.11-4.08,9.11-9.11s-4.08-9.11-9.11-9.11Z" stroke-width="0"/>
</svg>