<?xml version="1.0" encoding="UTF-8"?>
<svg id="Layer_3" data-name="Layer 3" xmlns="http://www.w3.org/2000/svg" viewBox="0 0 500 500">
  <path d="M250,10C124.38,10,22.15,112.22,22.15,237.85c0,5.03,4.08,9.11,9.11,9.11h27.34v233.92c0,5.03,4.08,9.11,9.11,9.11h364.56c5.03,0,9.11-4.08,9.11-9.11v-233.92h27.34c5.03,0,9.11-4.08,9.11-9.11,0-125.63-102.22-227.85-227.85-227.85ZM338.01,228.73h-176.01c2.09-109.6,41.53-200.51,88.01-200.51s85.92,90.9,88.01,200.51ZM201.96,34.01c-33.64,35.76-56.56,108.3-58.09,194.72H40.57c4.09-94.98,71.78-173.59,161.4-194.72ZM174.05,471.77v-100.25c0-41.87,34.08-75.95,75.95-75.95s75.95,34.08,75.95,75.95v100.25h-151.9ZM423.16,471.77h-78.99v-100.25c0-51.93-42.25-94.18-94.18-94.18s-94.18,42.25-94.18,94.18v100.25h-30.38v-88.1c0-5.03-4.08-9.11-9.11-9.11s-9.11,4.08-9.11,9.11v88.1h-30.38v-224.81h297.72v63.8c0,5.03,4.08,9.11,9.11,9.11s9.11-4.08,9.11-9.11v-63.8h30.38v224.81ZM432.28,228.73h-76.16c-1.53-86.42-24.45-158.97-58.09-194.72,89.62,21.13,157.31,99.74,161.4,194.72h-27.15Z" stroke-width="0"/>
  <path d="M383.67,350.25c-5.03,0-9.11,4.08-9.11,9.11v24.3c0,5.03,4.08,9.11,9.11,9.11s9.11-4.08,9.11-9.11v-24.3c0-5.03-4.08-9.11-9.11-9.11Z" stroke-width="0"/>
  <path d="M116.33,301.65c-5.03,0-9.11,4.08-9.11,9.11v24.3c0,5.03,4.08,9.11,9.11,9.11s9.11-4.08,9.11-9.11v-24.3c0-5.03-4.08-9.11-9.11-9.11Z" stroke-width="0"/>
</svg>