<?xml version="1.0" encoding="UTF-8"?>
<svg id="Layer_3" data-name="Layer 3" xmlns="http://www.w3.org/2000/svg" viewBox="0 0 500 500">
  <path d="M480.89,368.48h-3.04v-75.95c0-125.62-102.22-227.85-227.85-227.85-30.39,0-59.35,6.09-85.89,16.94-.15.06-.3.1-.44.16C80.74,115.89,22.15,197.46,22.15,292.53v75.95h-3.04c-5.03,0-9.11,4.08-9.11,9.11v48.61c0,5.03,4.08,9.11,9.11,9.11h461.77c5.03,0,9.11-4.08,9.11-9.11v-48.61c0-5.03-4.08-9.11-9.11-9.11ZM443.77,368.48v-63.8c0-1.08-.27-2.08-.61-3.04h16.47v66.84h-15.85ZM368.48,368.48v-66.84h57.67c-.34.96-.61,1.96-.61,3.04v63.8h-57.06ZM149.75,368.48v-73.08h30.38v73.08h-30.38ZM79.21,368.48v-63.8c0-1.08-.27-2.08-.61-3.04h52.92v66.84h-52.31ZM73.36,180.13h11.92v100.25c0,1.08.27,2.08.61,3.04h-45.06c1.64-37.9,13.29-73.18,32.52-103.29ZM171.54,180.13c-24.36,21.71-40.02,52.97-40.02,88.1v15.19h-28.62c.34-.96.61-1.96.61-3.04v-100.25h68.03ZM350.25,268.23v8.95h-30.38v-8.95c0-35.4-26.57-64.43-60.76-68.95v-30.38c50.95,4.69,91.14,47.18,91.14,99.33ZM401.23,180.13v100.25c0,1.08.27,2.08.61,3.04h-33.37v-15.19c0-35.13-15.66-66.39-40.02-88.1h72.77ZM426.64,180.13c19.23,30.11,30.88,65.39,32.52,103.29h-40.31c.34-.96.61-1.96.61-3.04v-100.25h7.18ZM240.89,199.28c-34.2,4.52-60.76,33.55-60.76,68.95v8.95h-30.38v-8.95c0-52.16,40.18-94.64,91.14-99.33v30.38ZM198.35,268.23c0-28.48,23.16-51.65,51.65-51.65s51.65,23.16,51.65,51.65v100.25h-103.29v-100.25ZM319.87,295.4h30.38v73.08h-30.38v-73.08ZM413.66,161.9h-67.68c.34-.96.61-1.96.61-3.04v-52.17c26.04,13.59,48.85,32.45,67.06,55.21ZM328.37,98.26v60.61c0,1.08.27,2.08.61,3.04h-27.7c-15.58-7.55-32.83-12.15-51.28-12.15s-35.7,4.6-51.28,12.15h-22.85c.34-.96.61-1.96.61-3.04v-62.38c22.92-8.62,47.62-13.57,73.52-13.57,27.72,0,54.13,5.53,78.37,15.34ZM158.26,104.34v54.52c0,1.08.27,2.08.61,3.04h-72.53c19.32-24.15,43.88-43.83,71.92-57.55ZM40.38,301.65h21.22c-.34.96-.61,1.96-.61,3.04v63.8h-20.6v-66.84ZM471.77,417.09H28.23v-30.38h443.54v30.38Z" stroke-width="0"/>
</svg>