<?xml version="1.0" encoding="UTF-8"?>
<svg id="Layer_3" data-name="Layer 3" xmlns="http://www.w3.org/2000/svg" viewBox="0 0 500 500">
  <path d="M489.57,156.74c-.12-.48-.11-1-.3-1.45,0,0,0-.02,0-.03l-36.47-85.06c-1.44-3.35-4.73-5.52-8.38-5.52h-166.34l-21.63-21.63c-3.56-3.56-9.33-3.56-12.89,0l-21.63,21.63H55.57c-3.64,0-6.94,2.17-8.38,5.52L10.74,155.27s0,.02,0,.03c-.2.48-.2,1.04-.32,1.55-.15.67-.4,1.33-.4,1.99,0,0,0,.01,0,.02v291.65c0,5.03,4.08,9.11,9.11,9.11h461.77c5.03,0,9.11-4.08,9.11-9.11V158.86s0-.01,0-.02c0-.7-.26-1.4-.43-2.1ZM438.41,82.91l28.65,66.84h-103.92l-66.84-66.84h142.11ZM61.57,82.91h142.12l-66.84,66.84H32.94l28.64-66.84ZM28.23,167.97h103.29v273.42H28.23V167.97ZM149.75,162.63l100.25-100.25,100.25,100.25v278.76h-30.38v-75.95c0-38.53-31.34-69.87-69.87-69.87s-69.87,31.34-69.87,69.87v75.95h-30.38V162.63ZM198.35,441.39v-75.95c0-28.48,23.16-51.65,51.65-51.65s51.65,23.16,51.65,51.65v75.95h-103.29ZM471.77,441.39h-103.29V167.97h103.29v273.42Z" stroke-width="0"/>
  <path d="M250,240.89c25.12,0,45.57-20.45,45.57-45.57s-20.45-45.57-45.57-45.57-45.57,20.45-45.57,45.57,20.45,45.57,45.57,45.57ZM250,167.97c15.07,0,27.34,12.27,27.34,27.34s-12.27,27.34-27.34,27.34-27.34-12.27-27.34-27.34,12.27-27.34,27.34-27.34Z" stroke-width="0"/>
  <path d="M407.97,216.58h24.3c5.03,0,9.11-4.08,9.11-9.11s-4.08-9.11-9.11-9.11h-24.3c-5.03,0-9.11,4.08-9.11,9.11s4.08,9.11,9.11,9.11Z" stroke-width="0"/>
  <path d="M407.97,289.49h24.3c5.03,0,9.11-4.08,9.11-9.11s-4.08-9.11-9.11-9.11h-24.3c-5.03,0-9.11,4.08-9.11,9.11s4.08,9.11,9.11,9.11Z" stroke-width="0"/>
  <path d="M407.97,362.41h24.3c5.03,0,9.11-4.08,9.11-9.11s-4.08-9.11-9.11-9.11h-24.3c-5.03,0-9.11,4.08-9.11,9.11s4.08,9.11,9.11,9.11Z" stroke-width="0"/>
  <path d="M92.03,198.35h-24.3c-5.03,0-9.11,4.08-9.11,9.11s4.08,9.11,9.11,9.11h24.3c5.03,0,9.11-4.08,9.11-9.11s-4.08-9.11-9.11-9.11Z" stroke-width="0"/>
  <path d="M92.03,271.27h-24.3c-5.03,0-9.11,4.08-9.11,9.11s4.08,9.11,9.11,9.11h24.3c5.03,0,9.11-4.08,9.11-9.11s-4.08-9.11-9.11-9.11Z" stroke-width="0"/>
  <path d="M92.03,344.18h-24.3c-5.03,0-9.11,4.08-9.11,9.11s4.08,9.11,9.11,9.11h24.3c5.03,0,9.11-4.08,9.11-9.11s-4.08-9.11-9.11-9.11Z" stroke-width="0"/>
</svg>