<?xml version="1.0" encoding="UTF-8"?>
<svg id="Layer_3" data-name="Layer 3" xmlns="http://www.w3.org/2000/svg" viewBox="0 0 500 500">
  <path d="M480.89,126.35h-209.62V38.25c0-.53-.22-.99-.3-1.5l15.16-3.58c4.89-1.16,7.93-6.08,6.76-10.97-1.15-4.91-6.03-7.97-10.97-6.79L17.01,77.98c-.27.06-.46.25-.72.33-.58.19-1.09.45-1.62.75-.52.3-1,.59-1.44.97-.44.38-.8.8-1.16,1.25-.36.46-.7.91-.97,1.44-.26.51-.43,1.03-.6,1.59-.18.59-.31,1.16-.36,1.79-.02.26-.15.49-.15.76v388.86c0,5.03,4.08,9.11,9.11,9.11h461.77c5.03,0,9.11-4.08,9.11-9.11V135.47c0-5.03-4.08-9.11-9.11-9.11ZM28.23,241.8h443.54v30.38H28.23v-30.38ZM204.43,223.57h-54.68v-110.07l54.68-8.65v118.72ZM131.52,223.57h-54.68v-98.54l54.68-8.65v107.19ZM344.18,223.57v-78.99h54.68v78.99h-54.68ZM471.77,223.57h-54.68v-78.99h54.68v78.99ZM325.95,144.58v78.99h-54.68v-78.99h54.68ZM253.04,223.57h-30.38V94.17c0-2.66-1.16-5.2-3.19-6.93-2.03-1.73-4.73-2.44-7.35-2.06l-145.82,23.07c-4.43.69-7.69,4.51-7.69,9v106.33h-30.38V94.08l224.81-53.09v182.58ZM76.84,387.62h151.9v30.38H76.84v-30.38ZM228.73,369.39H76.84v-30.38h151.9v30.38ZM76.84,466.61v-30.38h151.9v30.38H76.84ZM295.57,466.61v-127.59h54.68v127.59h-54.68ZM368.48,466.61v-127.59h54.68v127.59h-54.68ZM471.77,466.61h-30.38v-136.71c0-5.03-4.08-9.11-9.11-9.11h-145.82c-5.03,0-9.11,4.08-9.11,9.11v136.71h-30.38v-136.71c0-5.03-4.08-9.11-9.11-9.11H67.72c-5.03,0-9.11,4.08-9.11,9.11v136.71h-30.38v-176.2h443.54v176.2Z" stroke-width="0"/>
</svg>