<?xml version="1.0" encoding="UTF-8"?>
<svg id="Layer_3" data-name="Layer 3" xmlns="http://www.w3.org/2000/svg" viewBox="0 0 500 500">
  <path d="M425.87,125.44h30.71c5.03,0,9.11-4.08,9.11-9.11v-48.61c0-5.03-4.08-9.11-9.11-9.11h-39.49V19.11c0-5.03-4.08-9.11-9.11-9.11H92.03c-5.03,0-9.11,4.08-9.11,9.11v39.49h-39.49c-5.03,0-9.11,4.08-9.11,9.11v413.16c0,5.03,4.08,9.11,9.11,9.11h413.16c5.03,0,9.11-4.08,9.11-9.11v-218.73c0-5.03-4.08-9.11-9.11-9.11h-31.33c.34-.96.61-1.96.61-3.04v-124.56ZM101.14,28.23h297.72v30.38H101.14v-30.38ZM240.89,361.74v110.03h-84.4l.02-110.03h84.38ZM343.51,361.74l-.02,110.03h-84.38v-110.03h84.4ZM409.11,361.74l1.75,110.03h-49.15l.02-110.03h47.37ZM138.26,471.77h-49.13l1.75-110.03h47.4l-.02,110.03ZM447.47,471.77h-18.37l-1.9-119.29c-.07-4.98-4.13-8.97-9.11-8.97H81.91c-4.98,0-9.04,3.99-9.11,8.97l-1.9,119.29h-18.37v-151.9h394.94v151.9ZM447.47,301.65H52.53V76.84h394.94v30.38H92.03c-5.03,0-9.11,4.08-9.11,9.11v145.82c0,5.03,4.08,9.11,9.11,9.11h355.44v30.38ZM178.09,125.44l.02,124.56c0,1.08.27,2.08.61,3.04h-77.58v-127.59h76.95ZM196.31,125.44h108.7v124.56c0,1.08.27,2.08.61,3.04h-109.91c.34-.96.61-1.96.61-3.04l-.02-124.56ZM322.63,253.04c.34-.96.61-1.96.61-3.04v-124.56h84.4v124.56c0,1.08.27,2.08.61,3.04h-85.63Z" stroke-width="0"/>
</svg>