<?xml version="1.0" encoding="UTF-8"?>
<svg id="Layer_3" data-name="Layer 3" xmlns="http://www.w3.org/2000/svg" viewBox="0 0 500 500">
  <path d="M447.3,94.29c-1.59-2.91-4.65-4.71-7.97-4.71h-138.43l-45.25-35.68c-3.32-2.61-7.97-2.61-11.3,0l-45.25,35.68H60.67c-3.32,0-6.37,1.8-7.97,4.71,0,0-42.7,74.15-42.7,77.31v267.34c0,5.03,4.08,9.11,9.11,9.11h461.77c5.03,0,9.11-4.08,9.11-9.11V171.61c0-3.16-42.7-77.31-42.7-77.31ZM344.18,180.72h127.59v200.51h-127.59v-200.51ZM433.94,107.81l30.17,54.68h-119.93v-15.56l9.54,7.53c1.69,1.32,3.66,1.96,5.65,1.96,2.68,0,5.36-1.19,7.17-3.47,3.11-3.95,2.42-9.68-1.52-12.8l-41.01-32.34h109.93ZM250,72.66l75.95,59.9v248.67h-30.38v-197.47c0-25.12-20.44-45.57-45.57-45.57s-45.57,20.45-45.57,45.57v197.47h-30.38v-248.67l75.95-59.9ZM277.34,381.23h-54.68v-197.47c0-15.07,12.27-27.34,27.34-27.34s27.34,12.27,27.34,27.34v197.47ZM28.23,381.23v-200.51h127.59v200.51H28.23ZM66.05,107.81h109.94l-41.01,32.34c-3.95,3.12-4.63,8.85-1.51,12.8s8.84,4.63,12.8,1.51l9.54-7.53v15.56H35.89l30.16-54.68ZM471.77,429.83H28.23v-30.38h443.54v30.38Z" stroke-width="0"/>
  <path d="M432.28,216.58h-48.61c-5.03,0-9.11,4.08-9.11,9.11v128.19c0,5.03,4.08,9.11,9.11,9.11h48.61c5.03,0,9.11-4.08,9.11-9.11v-128.19c0-5.03-4.08-9.11-9.11-9.11ZM423.16,344.77h-30.38v-109.96h30.38v109.96Z" stroke-width="0"/>
  <path d="M116.33,216.58h-48.61c-5.03,0-9.11,4.08-9.11,9.11v128.19c0,5.03,4.08,9.11,9.11,9.11h48.61c5.03,0,9.11-4.08,9.11-9.11v-128.19c0-5.03-4.08-9.11-9.11-9.11ZM107.22,344.77h-30.38v-109.96h30.38v109.96Z" stroke-width="0"/>
</svg>