<?xml version="1.0" encoding="UTF-8"?>
<svg id="Layer_3" data-name="Layer 3" xmlns="http://www.w3.org/2000/svg" viewBox="0 0 500 500">
  <path d="M96.08,239.88h76.95c5.03,0,9.11-4.08,9.11-9.11v-57.72c0-26.25-21.34-47.6-47.59-47.6s-47.59,21.35-47.59,47.6v57.72c0,5.03,4.08,9.11,9.11,9.11ZM163.92,173.04v48.61h-20.25v-76.13c11.67,3.88,20.25,14.56,20.25,27.53ZM105.2,173.04c0-12.97,8.58-23.64,20.25-27.53v76.13h-20.25v-48.61Z" stroke-width="0"/>
  <path d="M487.34,147.35l-115.44-115.44c-3.56-3.56-9.35-3.56-12.91,0l-71.65,71.65v-33.13c0-5.03-4.08-9.11-9.11-9.11s-9.11,4.08-9.11,9.11v51.36l-19.11,19.11L141.01,31.91c-3.56-3.56-9.35-3.56-12.91,0L56.45,103.56v-33.13c0-5.03-4.08-9.11-9.11-9.11s-9.11,4.08-9.11,9.11v51.36l-25.56,25.56c-1.71,1.71-2.66,4.02-2.66,6.44v307.86c0,5.03,4.08,9.11,9.11,9.11h461.77c5.03,0,9.11-4.08,9.11-9.11V153.79c0-2.42-.95-4.73-2.66-6.44ZM365.44,51.24l106.33,106.33v121.8h-212.66v-121.8l25.51-25.51s.04-.04.06-.06l80.75-80.75ZM53.74,132.05s.04-.04.06-.06l80.75-80.75,106.33,106.33v121.8H28.23v-121.8l25.51-25.51ZM28.23,297.59h212.66v154.95h-58.74v-87.09c0-5.03-4.08-9.11-9.11-9.11h-76.95c-5.03,0-9.11,4.08-9.11,9.11v87.09H28.23v-154.95ZM105.2,452.54v-77.98h58.72v77.98h-58.72ZM336.08,452.54v-77.98h58.72v77.98h-58.72ZM413.03,452.54v-87.09c0-5.03-4.08-9.11-9.11-9.11h-76.95c-5.03,0-9.11,4.08-9.11,9.11v87.09h-58.74v-154.95h212.66v154.95h-58.74Z" stroke-width="0"/>
  <path d="M326.97,239.88h76.95c5.03,0,9.11-4.08,9.11-9.11v-57.72c0-26.25-21.34-47.6-47.59-47.6s-47.59,21.35-47.59,47.6v57.72c0,5.03,4.08,9.11,9.11,9.11ZM394.8,173.04v48.61h-20.25v-76.13c11.67,3.88,20.25,14.56,20.25,27.53ZM336.08,173.04c0-12.97,8.58-23.64,20.25-27.53v76.13h-20.25v-48.61Z" stroke-width="0"/>
</svg>