<?xml version="1.0" encoding="UTF-8"?>
<svg id="Layer_3" data-name="Layer 3" xmlns="http://www.w3.org/2000/svg" viewBox="0 0 500 500">
  <path d="M485.75,163.29L254.87,17.47c-2.99-1.85-6.74-1.85-9.73,0L14.25,163.29c-4.25,2.71-5.53,8.33-2.85,12.58s8.28,5.51,12.58,2.85l10.32-6.52v156.78c0,5.03,4.08,9.11,9.11,9.11h15.19v112.4c0,5.03,4.08,9.11,9.11,9.11s9.11-4.08,9.11-9.11v-112.4h78.99v88.1c0,5.03,4.08,9.11,9.11,9.11s9.11-4.08,9.11-9.11v-88.1h30.38v136.71c0,5.03,4.08,9.11,9.11,9.11h72.91c5.03,0,9.11-4.08,9.11-9.11v-136.71h30.38v88.1c0,5.03,4.08,9.11,9.11,9.11s9.11-4.08,9.11-9.11v-88.1h78.99v112.4c0,5.03,4.08,9.11,9.11,9.11s9.11-4.08,9.11-9.11v-112.4h15.19c5.03,0,9.11-4.08,9.11-9.11v-156.78l10.32,6.52c1.52.95,3.2,1.4,4.87,1.4,3.01,0,5.98-1.5,7.71-4.25,2.68-4.25,1.4-9.87-2.85-12.58ZM52.53,265.18h30.38v54.68h-30.38v-54.68ZM131.52,265.18v54.68h-30.38v-54.68h30.38ZM213.54,319.87h-15.19v-151.9h42.53v151.9h-27.34ZM277.34,417.08h-54.68v-30.38h54.68v30.38ZM222.66,465.69v-30.38h54.68v30.38h-54.68ZM277.34,368.47h-54.68v-30.38h54.68v30.38ZM286.46,319.87h-27.34v-151.9h42.53v151.9h-15.19ZM368.48,265.18h30.38v54.68h-30.38v-54.68ZM417.09,319.87v-54.68h30.38v54.68h-30.38ZM447.47,246.96h-88.1c-5.03,0-9.11,4.08-9.11,9.11v63.8h-30.38v-161.01c0-5.03-4.08-9.11-9.11-9.11h-121.52c-5.03,0-9.11,4.08-9.11,9.11v161.01h-30.38v-63.8c0-5.03-4.08-9.11-9.11-9.11H52.53v-86.27L250,35.96l197.47,124.73v86.27Z" stroke-width="0"/>
  <path d="M359.37,240.88h48.61c5.03,0,9.11-4.08,9.11-9.11v-48.61c0-3.44-1.95-6.6-5.03-8.14l-48.61-24.3c-2.8-1.45-6.17-1.28-8.88.38-2.68,1.66-4.32,4.6-4.32,7.76v72.91c0,5.03,4.08,9.11,9.11,9.11ZM368.48,173.59l30.38,15.19v33.87h-30.38v-49.06Z" stroke-width="0"/>
  <path d="M136.55,150.71l-48.61,24.3c-3.09,1.54-5.03,4.7-5.03,8.14v48.61c0,5.03,4.08,9.11,9.11,9.11h48.61c5.03,0,9.11-4.08,9.11-9.11v-72.91c0-3.16-1.64-6.1-4.32-7.76-2.73-1.66-6.1-1.85-8.88-.38ZM131.52,222.65h-30.38v-33.87l30.38-15.19v49.06Z" stroke-width="0"/>
</svg>