<?xml version="1.0" encoding="UTF-8"?>
<svg id="Layer_3" data-name="Layer 3" xmlns="http://www.w3.org/2000/svg" viewBox="0 0 500 500">
  <path d="M304.65,204.57h95.01c5.1,0,9.23-4.13,9.23-8.99v-23.81c0-31.35-25.52-56.86-56.86-56.86s-56.62,25.51-56.62,56.86v23.81c0,4.86,4.13,8.99,9.23,8.99ZM313.64,171.76c0-21.38,17.25-38.64,38.39-38.64s38.64,17.25,38.64,38.64v14.58h-77.03v-14.58Z" stroke-width="0"/>
  <path d="M489.81,40.78c-1.21-4.86-6.32-8.02-10.93-6.8l-22.6,5.35-18.23,4.13-172.04,40.1-18.23,4.13-16.77,3.89c-4.86.97-7.78,5.83-6.8,10.69.97,4.37,4.86,7.29,8.99,7.29.73,0,1.21-.24,1.94-.24l12.64-2.92v32.32H42.94c-5.1,0-9.23,4.13-9.23,9.23v93.07l-22.84,45.44c-1.22,2.92-1.22,6.32.48,8.99s4.62,4.37,7.78,4.37h14.58v157.22c0,5.1,4.13,9.23,9.23,9.23h404.35c4.86,0,8.99-4.13,8.99-9.23v-157.22h14.82c3.16,0,6.08-1.7,7.78-4.37,1.46-2.67,1.7-6.08.24-8.99l-22.84-45.44V57.8l26.49-6.08c5.1-.97,8.02-5.83,7.05-10.94ZM247.79,233.97h-53.07v-77.03h53.07v77.03ZM123.37,156.94h53.12v77.03h-53.12v-77.03ZM51.93,156.94h53.22v77.03h-53.22v-77.03ZM223.97,376.61h-124.42v-29.4h124.42v29.4ZM99.55,448.06v-53.22h124.42v53.22h-124.42ZM313.64,448.06v-62.21c0-21.38,17.25-38.64,38.39-38.64s38.64,17.25,38.64,38.64v62.21h-77.03ZM438.05,448.06h-29.16v-62.21c0-31.35-25.52-56.86-56.86-56.86s-56.62,25.51-56.62,56.86v62.21h-53.22v-109.84c0-5.1-3.89-9.23-8.99-9.23H90.56c-5.1,0-9.23,4.13-9.23,9.23v109.84h-29.4v-148.23h386.13v148.23ZM447.29,281.6H33.94l14.58-29.4h393.18l14.58,29.4h-8.99ZM438.05,233.97h-172.04V102.02l172.04-39.85v171.8Z" stroke-width="0"/>
</svg>