<?xml version="1.0" encoding="utf-8"?>
<!-- Generator: Adobe Illustrator 27.2.0, SVG Export Plug-In . SVG Version: 6.00 Build 0)  -->
<svg version="1.1" id="Layer_1" xmlns="http://www.w3.org/2000/svg" xmlns:xlink="http://www.w3.org/1999/xlink" x="0px" y="0px"
	 viewBox="0 0 1920 453" style="enable-background:new 0 0 1920 453;" xml:space="preserve">
<style type="text/css">
	.st0{fill:#FFFFFF;}
	.st1{fill:#8CC94E;}
	.st2{fill:#404041;}
</style>
<g>
	<g>
		<g>
			<path class="st0" d="M467.69,359.07c19.63,0,29.26,11.3,29.26,24.74c0,9.75-5.23,20.22-19.15,23.67l20.46,34.25h-16.18
				l-19.03-33.06h-10.35v33.06h-13.56v-82.66H467.69z M467.69,370.13h-14.99v27.71h14.99c10.58,0,15.34-5.83,15.34-14.03
				C483.04,375.48,478.28,370.13,467.69,370.13z"/>
			<path class="st0" d="M580.22,370.01H548.1v24.26h28.55v11.06H548.1v25.33h32.11v11.06h-45.67v-82.78h45.67V370.01z"/>
			<path class="st0" d="M666.93,424.84h-34.61l-5.95,16.89h-14.15l29.61-82.78h15.7l29.61,82.78h-14.27L666.93,424.84z
				 M649.68,375.36l-13.56,38.42h27L649.68,375.36z"/>
			<path class="st0" d="M733.78,359.07v71.72h27.95v10.94h-41.51v-82.66H733.78z"/>
			<path class="st0" d="M890.07,370.01h-32.11v24.26h28.55v11.06h-28.55v25.33h32.11v11.06H844.4v-82.78h45.67V370.01z"/>
			<path class="st0" d="M954.18,442.56c-16.53,0-29.26-9.04-29.26-23.67h14.51c0.59,6.78,5.35,12.25,14.75,12.25
				c9.52,0,14.86-5.11,14.86-12.13c0-19.98-43.89-7.02-43.89-37.47c0-14.51,11.54-23.55,28.43-23.55c15.82,0,27,8.32,28.19,22.48
				h-14.99c-0.48-5.59-5.35-10.7-13.92-10.94c-7.85-0.24-13.92,3.57-13.92,11.54c0,18.68,43.77,7.02,43.77,37.23
				C982.73,430.67,972.62,442.56,954.18,442.56z"/>
			<path class="st0" d="M1014.73,359.07h57.69v11.06h-22v71.6h-13.56v-71.6h-22.12V359.07z"/>
			<path class="st0" d="M1156.16,424.84h-34.61l-5.94,16.89h-14.16l29.62-82.78h15.7l29.62,82.78h-14.28L1156.16,424.84z
				 M1138.91,375.36l-13.56,38.42h27L1138.91,375.36z"/>
			<path class="st0" d="M1205.17,359.07h57.69v11.06h-22v71.6h-13.56v-71.6h-22.12V359.07z"/>
			<path class="st0" d="M1342.43,370.01h-32.12v24.26h28.55v11.06h-28.55v25.33h32.12v11.06h-45.67v-82.78h45.67V370.01z"/>
		</g>
	</g>
	<path class="st0" d="M430.23,124.66V66.68V7.87h69.83v58.81h45.73v57.98h-45.73v91.47c0,13.48,5.72,19.19,21.23,19.19h24.91v59.21
		h-35.53c-47.36,0-80.44-20.01-80.44-79.22V124.66z"/>
	<path class="st0" d="M560.49,7.87h69.83V97.3c13.88-19.6,38.79-33.08,70.23-33.08c51.86,0,86.57,35.93,86.57,97.19v133.12H717.7
		V170.8c0-31.04-17.15-48.19-43.69-48.19c-26.54,0-43.69,17.15-43.69,48.19v123.73h-69.83V7.87z"/>
	<path class="st0" d="M914.93,297.79c-66.97,0-117.6-44.92-117.6-117.19S849.19,63.41,915.75,63.41
		c66.97,0,118.42,44.92,118.42,117.19S981.9,297.79,914.93,297.79z M914.93,237.36c24.91,0,48.19-18.37,48.19-56.76
		c0-38.79-22.87-56.76-47.37-56.76c-25.32,0-47.36,17.97-47.36,56.76C868.38,218.98,889.62,237.36,914.93,237.36z"/>
	<path class="st0" d="M1271.83,294.53H1202v-31.04c-13.88,19.6-38.38,33.49-69,33.49c-52.68,0-88.2-36.34-88.2-97.18V66.68h69.42
		V190.4c0,31.03,17.56,48.18,43.69,48.18c26.95,0,44.1-17.15,44.1-48.18V66.68h69.83V294.53z"/>
	<path class="st0" d="M1384.93,63.41c33.49,0,57.98,15.11,70.23,35.52V66.68h69.83v227.44c0,60.84-35.12,112.7-113.93,112.7
		l-3.27-60.43c26.54,0,47.36-13.89,47.36-52.27v-32.26c-12.66,20.01-36.75,35.93-70.23,35.93c-55.94,0-100.46-45.73-100.46-117.6
		S1328.98,63.41,1384.93,63.41z M1405.35,124.25c-26.13,0-49.82,19.6-49.82,55.94s23.69,56.76,49.82,56.76
		c26.54,0,49.81-20,49.81-56.35S1431.88,124.25,1405.35,124.25z"/>
	<path class="st0" d="M1550.32,7.87h69.83V97.3c13.89-19.6,38.79-33.08,70.23-33.08c51.86,0,86.57,35.93,86.57,97.19v133.12h-69.42
		V170.8c0-31.04-17.15-48.19-43.69-48.19c-26.54,0-43.69,17.15-43.69,48.19v123.73h-69.83V7.87z"/>
	<path class="st0" d="M1793.03,124.66V66.68V7.87h69.82v58.81h45.73v57.98h-45.73v91.47c0,13.48,5.72,19.19,21.24,19.19H1909v59.21
		h-35.52c-47.36,0-80.44-20.01-80.44-79.22V124.66z"/>
	<g>
		<path class="st0" d="M186.42,285.54c56.76,0,97.18-34.3,108.21-78.81h-74.32c-5.72,12.25-16.74,22.05-36.34,22.05
			c-16.92,0-31.51-7.89-38.73-24.51H75.76C89.12,255.18,131.4,285.54,186.42,285.54z"/>
		<path class="st0" d="M185.6,107.09c23.28,0,42.88,14.29,42.88,39.2l-43.28,0.25v38.8l113.52-0.25c0.82-6.94,1.22-13.89,1.22-20.42
			c0-69.42-46.96-113.52-113.52-113.52c-0.56,0-1.08,0.06-1.63,0.07v55.93C185.07,107.15,185.32,107.09,185.6,107.09z"/>
	</g>
	<path class="st0" d="M79.83,64.53V26.56H10v148.62h69.83v-26.52c0.82-71.05,71.46-69.83,71.46-69.83V24.11
		C120.66,24.11,95.75,40.44,79.83,64.53z"/>
	<g>
		<circle class="st1" cx="360.32" cy="114.33" r="32.22"/>
		<circle class="st1" cx="360.32" cy="216.48" r="32.22"/>
	</g>
</g>
</svg>
